<mxfile host="app.diagrams.net" agent="Mozilla/5.0 (Windows NT 10.0; Win64; x64) AppleWebKit/537.36 (KHTML, like Gecko) Chrome/128.0.0.0 Safari/537.36" version="24.7.5">
  <diagram name="PÃ¡gina-1" id="XPcWbXmiKY3mg_DqCVEu">
    <mxGraphModel dx="840" dy="452" grid="1" gridSize="10" guides="1" tooltips="1" connect="1" arrows="1" fold="1" page="1" pageScale="1" pageWidth="827" pageHeight="1169" math="0" shadow="0">
      <root>
        <mxCell id="0" />
        <mxCell id="1" parent="0" />
        <mxCell id="fjZ9AJTnblLsKTZs6ogJ-1" value="MULTIPLEXER" style="verticalLabelPosition=middle;verticalAlign=middle;html=1;shape=trapezoid;perimeter=trapezoidPerimeter;whiteSpace=wrap;size=0.23;arcSize=10;flipV=1;labelPosition=center;align=center;direction=south;fillColor=#e1d5e7;strokeColor=#9673a6;" vertex="1" parent="1">
          <mxGeometry x="240" y="80" width="120" height="320" as="geometry" />
        </mxCell>
        <mxCell id="fjZ9AJTnblLsKTZs6ogJ-3" value="" style="shape=flexArrow;endArrow=classic;html=1;rounded=0;fillColor=#ffe6cc;strokeColor=#d79b00;" edge="1" parent="1" source="fjZ9AJTnblLsKTZs6ogJ-20">
          <mxGeometry width="50" height="50" relative="1" as="geometry">
            <mxPoint x="80" y="119" as="sourcePoint" />
            <mxPoint x="240" y="120" as="targetPoint" />
          </mxGeometry>
        </mxCell>
        <mxCell id="fjZ9AJTnblLsKTZs6ogJ-4" value="" style="shape=flexArrow;endArrow=classic;html=1;rounded=0;entryX=0.859;entryY=1.003;entryDx=0;entryDy=0;entryPerimeter=0;dashed=1;fillColor=#ffe6cc;strokeColor=#d79b00;" edge="1" parent="1" source="fjZ9AJTnblLsKTZs6ogJ-13">
          <mxGeometry width="50" height="50" relative="1" as="geometry">
            <mxPoint x="80" y="359" as="sourcePoint" />
            <mxPoint x="240" y="359" as="targetPoint" />
          </mxGeometry>
        </mxCell>
        <mxCell id="fjZ9AJTnblLsKTZs6ogJ-5" value="" style="shape=flexArrow;endArrow=classic;html=1;rounded=0;entryX=0.859;entryY=1.003;entryDx=0;entryDy=0;entryPerimeter=0;fillColor=#ffe6cc;strokeColor=#d79b00;" edge="1" parent="1">
          <mxGeometry width="50" height="50" relative="1" as="geometry">
            <mxPoint x="80" y="199" as="sourcePoint" />
            <mxPoint x="240" y="199" as="targetPoint" />
          </mxGeometry>
        </mxCell>
        <mxCell id="fjZ9AJTnblLsKTZs6ogJ-6" value="" style="shape=flexArrow;endArrow=classic;html=1;rounded=0;fillColor=#ffe6cc;strokeColor=#d79b00;" edge="1" parent="1" source="fjZ9AJTnblLsKTZs6ogJ-17">
          <mxGeometry width="50" height="50" relative="1" as="geometry">
            <mxPoint x="80" y="278" as="sourcePoint" />
            <mxPoint x="240" y="280" as="targetPoint" />
          </mxGeometry>
        </mxCell>
        <mxCell id="fjZ9AJTnblLsKTZs6ogJ-7" value="" style="shape=flexArrow;endArrow=classic;html=1;rounded=0;fillColor=#ffcc99;strokeColor=#36393d;" edge="1" parent="1">
          <mxGeometry width="50" height="50" relative="1" as="geometry">
            <mxPoint x="360" y="240" as="sourcePoint" />
            <mxPoint x="400" y="240" as="targetPoint" />
          </mxGeometry>
        </mxCell>
        <mxCell id="fjZ9AJTnblLsKTZs6ogJ-8" value="" style="endArrow=classic;html=1;rounded=0;exitX=0.5;exitY=0;exitDx=0;exitDy=0;" edge="1" parent="1" source="fjZ9AJTnblLsKTZs6ogJ-22">
          <mxGeometry width="50" height="50" relative="1" as="geometry">
            <mxPoint x="251" y="446" as="sourcePoint" />
            <mxPoint x="251" y="397" as="targetPoint" />
          </mxGeometry>
        </mxCell>
        <mxCell id="fjZ9AJTnblLsKTZs6ogJ-9" value="" style="endArrow=classic;html=1;rounded=0;" edge="1" parent="1" source="fjZ9AJTnblLsKTZs6ogJ-32">
          <mxGeometry width="50" height="50" relative="1" as="geometry">
            <mxPoint x="300" y="440" as="sourcePoint" />
            <mxPoint x="301" y="365" as="targetPoint" />
          </mxGeometry>
        </mxCell>
        <mxCell id="fjZ9AJTnblLsKTZs6ogJ-10" value="" style="endArrow=classic;html=1;rounded=0;dashed=1;dashPattern=8 8;curved=0;exitX=0.5;exitY=0;exitDx=0;exitDy=0;" edge="1" parent="1" source="fjZ9AJTnblLsKTZs6ogJ-24">
          <mxGeometry width="50" height="50" relative="1" as="geometry">
            <mxPoint x="350" y="432" as="sourcePoint" />
            <mxPoint x="350" y="334" as="targetPoint" />
          </mxGeometry>
        </mxCell>
        <mxCell id="fjZ9AJTnblLsKTZs6ogJ-13" value="Input_n" style="rounded=1;whiteSpace=wrap;html=1;fillColor=#ffe6cc;strokeColor=#d79b00;dashed=1;" vertex="1" parent="1">
          <mxGeometry x="70" y="340" width="90" height="40" as="geometry" />
        </mxCell>
        <mxCell id="fjZ9AJTnblLsKTZs6ogJ-17" value="Input_3" style="rounded=1;whiteSpace=wrap;html=1;fillColor=#ffe6cc;strokeColor=#d79b00;" vertex="1" parent="1">
          <mxGeometry x="70" y="260" width="90" height="40" as="geometry" />
        </mxCell>
        <mxCell id="fjZ9AJTnblLsKTZs6ogJ-19" value="Input_2" style="rounded=1;whiteSpace=wrap;html=1;fillColor=#ffe6cc;strokeColor=#d79b00;" vertex="1" parent="1">
          <mxGeometry x="70" y="180" width="90" height="40" as="geometry" />
        </mxCell>
        <mxCell id="fjZ9AJTnblLsKTZs6ogJ-21" value="" style="shape=flexArrow;endArrow=classic;html=1;rounded=0;" edge="1" parent="1" target="fjZ9AJTnblLsKTZs6ogJ-20">
          <mxGeometry width="50" height="50" relative="1" as="geometry">
            <mxPoint x="80" y="119" as="sourcePoint" />
            <mxPoint x="240" y="120" as="targetPoint" />
          </mxGeometry>
        </mxCell>
        <mxCell id="fjZ9AJTnblLsKTZs6ogJ-20" value="Input_1" style="rounded=1;whiteSpace=wrap;html=1;fillColor=#ffe6cc;strokeColor=#d79b00;" vertex="1" parent="1">
          <mxGeometry x="70" y="100" width="90" height="40" as="geometry" />
        </mxCell>
        <mxCell id="fjZ9AJTnblLsKTZs6ogJ-22" value="Lock_1" style="text;html=1;align=center;verticalAlign=middle;whiteSpace=wrap;rounded=0;" vertex="1" parent="1">
          <mxGeometry x="221" y="440" width="60" height="30" as="geometry" />
        </mxCell>
        <mxCell id="fjZ9AJTnblLsKTZs6ogJ-23" value="Lock_2" style="text;html=1;align=center;verticalAlign=middle;whiteSpace=wrap;rounded=0;" vertex="1" parent="1">
          <mxGeometry x="270" y="440" width="60" height="30" as="geometry" />
        </mxCell>
        <mxCell id="fjZ9AJTnblLsKTZs6ogJ-24" value="Lock_m" style="text;html=1;align=center;verticalAlign=middle;whiteSpace=wrap;rounded=0;" vertex="1" parent="1">
          <mxGeometry x="320" y="440" width="60" height="30" as="geometry" />
        </mxCell>
        <mxCell id="fjZ9AJTnblLsKTZs6ogJ-25" value="Output&lt;div&gt;MAX priority&lt;/div&gt;" style="rounded=0;whiteSpace=wrap;html=1;fillColor=#ffcc99;strokeColor=#36393d;" vertex="1" parent="1">
          <mxGeometry x="400" y="220" width="100" height="40" as="geometry" />
        </mxCell>
        <mxCell id="fjZ9AJTnblLsKTZs6ogJ-26" value="P 10" style="whiteSpace=wrap;html=1;aspect=fixed;fillColor=#fff2cc;strokeColor=#d6b656;" vertex="1" parent="1">
          <mxGeometry x="240" y="105" width="30" height="30" as="geometry" />
        </mxCell>
        <mxCell id="fjZ9AJTnblLsKTZs6ogJ-27" value="P 20" style="whiteSpace=wrap;html=1;aspect=fixed;fillColor=#fff2cc;strokeColor=#d6b656;" vertex="1" parent="1">
          <mxGeometry x="240" y="185" width="30" height="30" as="geometry" />
        </mxCell>
        <mxCell id="fjZ9AJTnblLsKTZs6ogJ-29" value="P 30" style="whiteSpace=wrap;html=1;aspect=fixed;fillColor=#fff2cc;strokeColor=#d6b656;" vertex="1" parent="1">
          <mxGeometry x="240" y="265" width="30" height="30" as="geometry" />
        </mxCell>
        <mxCell id="fjZ9AJTnblLsKTZs6ogJ-30" value="P X" style="whiteSpace=wrap;html=1;aspect=fixed;fillColor=#fff2cc;strokeColor=#d6b656;" vertex="1" parent="1">
          <mxGeometry x="240" y="345" width="30" height="30" as="geometry" />
        </mxCell>
        <mxCell id="fjZ9AJTnblLsKTZs6ogJ-31" value="P 19" style="ellipse;whiteSpace=wrap;html=1;aspect=fixed;" vertex="1" parent="1">
          <mxGeometry x="236" y="410" width="30" height="30" as="geometry" />
        </mxCell>
        <mxCell id="fjZ9AJTnblLsKTZs6ogJ-33" value="" style="endArrow=classic;html=1;rounded=0;" edge="1" parent="1" target="fjZ9AJTnblLsKTZs6ogJ-32">
          <mxGeometry width="50" height="50" relative="1" as="geometry">
            <mxPoint x="300" y="440" as="sourcePoint" />
            <mxPoint x="301" y="365" as="targetPoint" />
          </mxGeometry>
        </mxCell>
        <mxCell id="fjZ9AJTnblLsKTZs6ogJ-32" value="P 29" style="ellipse;whiteSpace=wrap;html=1;aspect=fixed;" vertex="1" parent="1">
          <mxGeometry x="285" y="410" width="30" height="30" as="geometry" />
        </mxCell>
        <mxCell id="fjZ9AJTnblLsKTZs6ogJ-34" value="P Y" style="ellipse;whiteSpace=wrap;html=1;aspect=fixed;dashed=1;" vertex="1" parent="1">
          <mxGeometry x="335" y="410" width="30" height="30" as="geometry" />
        </mxCell>
      </root>
    </mxGraphModel>
  </diagram>
</mxfile>
